<mxfile host="app.diagrams.net" agent="Mozilla/5.0 (Windows NT 10.0; Win64; x64) AppleWebKit/537.36 (KHTML, like Gecko) Chrome/134.0.0.0 Safari/537.36" version="26.2.4">
  <diagram name="Page-1" id="AAfCP9k9rGB3eEQzbdpn">
    <mxGraphModel grid="0" page="1" gridSize="10" guides="1" tooltips="1" connect="1" arrows="1" fold="1" pageScale="1" pageWidth="827" pageHeight="1169" math="0" shadow="0">
      <root>
        <mxCell id="0" />
        <mxCell id="1" parent="0" />
        <mxCell id="GqqdrWrHjXsdjU6qzf6p-1" value="" style="html=1;verticalAlign=bottom;startArrow=circle;startFill=1;endArrow=open;startSize=6;endSize=8;curved=0;rounded=0;entryX=0.5;entryY=0;entryDx=0;entryDy=0;" edge="1" parent="1" target="GqqdrWrHjXsdjU6qzf6p-2">
          <mxGeometry width="80" relative="1" as="geometry">
            <mxPoint x="279" y="135" as="sourcePoint" />
            <mxPoint x="325" y="168" as="targetPoint" />
          </mxGeometry>
        </mxCell>
        <mxCell id="GqqdrWrHjXsdjU6qzf6p-2" value="Get Started" style="html=1;whiteSpace=wrap;fillColor=#f8cecc;strokeColor=#b85450;" vertex="1" parent="1">
          <mxGeometry x="224" y="235" width="110" height="50" as="geometry" />
        </mxCell>
        <mxCell id="GqqdrWrHjXsdjU6qzf6p-3" value="" style="endArrow=open;endFill=1;endSize=12;html=1;rounded=0;fillColor=#f8cecc;strokeColor=#b85450;" edge="1" parent="1">
          <mxGeometry width="160" relative="1" as="geometry">
            <mxPoint x="334" y="259.5" as="sourcePoint" />
            <mxPoint x="494" y="259.5" as="targetPoint" />
          </mxGeometry>
        </mxCell>
        <mxCell id="GqqdrWrHjXsdjU6qzf6p-4" value="CSV File Upload" style="html=1;whiteSpace=wrap;fillColor=#f8cecc;strokeColor=#b85450;" vertex="1" parent="1">
          <mxGeometry x="494" y="235" width="110" height="50" as="geometry" />
        </mxCell>
        <mxCell id="GqqdrWrHjXsdjU6qzf6p-5" value="" style="endArrow=open;endFill=1;endSize=12;html=1;rounded=0;exitX=0.5;exitY=1;exitDx=0;exitDy=0;fillColor=#f8cecc;strokeColor=#b85450;" edge="1" parent="1" source="GqqdrWrHjXsdjU6qzf6p-4">
          <mxGeometry width="160" relative="1" as="geometry">
            <mxPoint x="424" y="385" as="sourcePoint" />
            <mxPoint x="549" y="385" as="targetPoint" />
          </mxGeometry>
        </mxCell>
        <mxCell id="GqqdrWrHjXsdjU6qzf6p-6" value="CSV File Processing" style="html=1;whiteSpace=wrap;fillColor=#f8cecc;strokeColor=#b85450;" vertex="1" parent="1">
          <mxGeometry x="494" y="385" width="110" height="50" as="geometry" />
        </mxCell>
        <mxCell id="GqqdrWrHjXsdjU6qzf6p-7" value="Selecting Operation" style="html=1;whiteSpace=wrap;fillColor=#f8cecc;strokeColor=#b85450;" vertex="1" parent="1">
          <mxGeometry x="224" y="385" width="110" height="50" as="geometry" />
        </mxCell>
        <mxCell id="GqqdrWrHjXsdjU6qzf6p-8" value="Selecting Inputs" style="html=1;whiteSpace=wrap;fillColor=#f8cecc;strokeColor=#b85450;" vertex="1" parent="1">
          <mxGeometry x="224" y="535" width="110" height="50" as="geometry" />
        </mxCell>
        <mxCell id="GqqdrWrHjXsdjU6qzf6p-9" value="Submiting Input" style="html=1;whiteSpace=wrap;fillColor=#f8cecc;strokeColor=#b85450;" vertex="1" parent="1">
          <mxGeometry x="494" y="535" width="110" height="50" as="geometry" />
        </mxCell>
        <mxCell id="GqqdrWrHjXsdjU6qzf6p-10" value="Processing Input" style="html=1;whiteSpace=wrap;fillColor=#f8cecc;strokeColor=#b85450;" vertex="1" parent="1">
          <mxGeometry x="494" y="685" width="110" height="50" as="geometry" />
        </mxCell>
        <mxCell id="GqqdrWrHjXsdjU6qzf6p-11" value="Generating Output" style="html=1;whiteSpace=wrap;fillColor=#f8cecc;strokeColor=#b85450;" vertex="1" parent="1">
          <mxGeometry x="224" y="685" width="110" height="50" as="geometry" />
        </mxCell>
        <mxCell id="GqqdrWrHjXsdjU6qzf6p-12" value="Displaying Output" style="html=1;whiteSpace=wrap;fillColor=#f8cecc;strokeColor=#b85450;" vertex="1" parent="1">
          <mxGeometry x="224" y="835" width="110" height="50" as="geometry" />
        </mxCell>
        <mxCell id="GqqdrWrHjXsdjU6qzf6p-13" value="Downloading Output" style="html=1;whiteSpace=wrap;fillColor=#f8cecc;strokeColor=#b85450;" vertex="1" parent="1">
          <mxGeometry x="494" y="835" width="110" height="50" as="geometry" />
        </mxCell>
        <mxCell id="GqqdrWrHjXsdjU6qzf6p-14" value="" style="ellipse;html=1;shape=endState;fillColor=#000000;strokeColor=#ff0000;" vertex="1" parent="1">
          <mxGeometry x="524" y="985" width="50" height="50" as="geometry" />
        </mxCell>
        <mxCell id="GqqdrWrHjXsdjU6qzf6p-15" value="" style="endArrow=open;endFill=1;endSize=12;html=1;rounded=0;exitX=0.5;exitY=1;exitDx=0;exitDy=0;fillColor=#f8cecc;strokeColor=#b85450;" edge="1" parent="1">
          <mxGeometry width="160" relative="1" as="geometry">
            <mxPoint x="278.5" y="435" as="sourcePoint" />
            <mxPoint x="278.5" y="535" as="targetPoint" />
          </mxGeometry>
        </mxCell>
        <mxCell id="GqqdrWrHjXsdjU6qzf6p-16" value="" style="endArrow=open;endFill=1;endSize=12;html=1;rounded=0;exitX=0.5;exitY=1;exitDx=0;exitDy=0;fillColor=#f8cecc;strokeColor=#b85450;" edge="1" parent="1">
          <mxGeometry width="160" relative="1" as="geometry">
            <mxPoint x="548.5" y="585" as="sourcePoint" />
            <mxPoint x="548.5" y="685" as="targetPoint" />
          </mxGeometry>
        </mxCell>
        <mxCell id="GqqdrWrHjXsdjU6qzf6p-17" value="" style="endArrow=open;endFill=1;endSize=12;html=1;rounded=0;exitX=0.5;exitY=1;exitDx=0;exitDy=0;fillColor=#f8cecc;strokeColor=#b85450;" edge="1" parent="1">
          <mxGeometry width="160" relative="1" as="geometry">
            <mxPoint x="278.5" y="735" as="sourcePoint" />
            <mxPoint x="278.5" y="835" as="targetPoint" />
          </mxGeometry>
        </mxCell>
        <mxCell id="GqqdrWrHjXsdjU6qzf6p-18" value="" style="endArrow=open;endFill=1;endSize=12;html=1;rounded=0;exitX=0.5;exitY=1;exitDx=0;exitDy=0;" edge="1" parent="1">
          <mxGeometry width="160" relative="1" as="geometry">
            <mxPoint x="548.5" y="885" as="sourcePoint" />
            <mxPoint x="548.5" y="985" as="targetPoint" />
          </mxGeometry>
        </mxCell>
        <mxCell id="GqqdrWrHjXsdjU6qzf6p-19" value="" style="endArrow=open;endFill=1;endSize=12;html=1;rounded=0;exitX=0;exitY=0.5;exitDx=0;exitDy=0;entryX=1;entryY=0.5;entryDx=0;entryDy=0;fillColor=#f8cecc;strokeColor=#b85450;" edge="1" parent="1" source="GqqdrWrHjXsdjU6qzf6p-6" target="GqqdrWrHjXsdjU6qzf6p-7">
          <mxGeometry width="160" relative="1" as="geometry">
            <mxPoint x="414" y="305" as="sourcePoint" />
            <mxPoint x="414" y="405" as="targetPoint" />
          </mxGeometry>
        </mxCell>
        <mxCell id="GqqdrWrHjXsdjU6qzf6p-20" value="" style="endArrow=open;endFill=1;endSize=12;html=1;rounded=0;exitX=0;exitY=0.5;exitDx=0;exitDy=0;entryX=1;entryY=0.5;entryDx=0;entryDy=0;fillColor=#f8cecc;strokeColor=#b85450;" edge="1" parent="1">
          <mxGeometry width="160" relative="1" as="geometry">
            <mxPoint x="494" y="709.5" as="sourcePoint" />
            <mxPoint x="334" y="709.5" as="targetPoint" />
          </mxGeometry>
        </mxCell>
        <mxCell id="GqqdrWrHjXsdjU6qzf6p-21" value="" style="endArrow=open;endFill=1;endSize=12;html=1;rounded=0;fillColor=#f8cecc;strokeColor=#b85450;" edge="1" parent="1">
          <mxGeometry width="160" relative="1" as="geometry">
            <mxPoint x="334" y="559.5" as="sourcePoint" />
            <mxPoint x="494" y="559.5" as="targetPoint" />
          </mxGeometry>
        </mxCell>
        <mxCell id="GqqdrWrHjXsdjU6qzf6p-22" value="" style="endArrow=open;endFill=1;endSize=12;html=1;rounded=0;fillColor=#f8cecc;strokeColor=#b85450;" edge="1" parent="1">
          <mxGeometry width="160" relative="1" as="geometry">
            <mxPoint x="334" y="859.5" as="sourcePoint" />
            <mxPoint x="494" y="859.5" as="targetPoint" />
          </mxGeometry>
        </mxCell>
      </root>
    </mxGraphModel>
  </diagram>
</mxfile>
